<svg xmlns="http://www.w3.org/2000/svg" fill="none" viewBox="0 0 52 52" height="52" width="52">
<mask height="52" width="52" y="0" x="0" maskUnits="userSpaceOnUse" style="mask-type:luminance" id="mask0_2604_2041">
<path fill="white" d="M0.925781 25.9985C0.925781 39.8492 12.1538 51.077 26.0042 51.077C39.8548 51.077 51.083 39.8492 51.083 25.9985C51.083 12.1481 39.8548 0.919922 26.0042 0.919922C12.1538 0.919922 0.925781 12.1481 0.925781 25.9985Z"></path>
</mask>
<g mask="url(#mask0_2604_2041)">
<path fill="url(#paint0_radial_2604_2041)" d="M51.083 0.919922H0.925781V51.077H51.083V0.919922Z"></path>
</g>
<path fill="#F7A600" d="M0 26.0001C0.000392748 11.6404 11.6403 0.000392748 26 0C40.3598 0.000392748 51.9993 11.6404 52 26.0001C51.9993 40.3601 40.3598 51.9994 26 52.0001C11.6403 51.9994 0.000392748 40.3601 0 26.0001ZM8.91855 8.91855C4.54525 13.2929 1.84335 19.3263 1.84301 26.0001C1.84335 32.6741 4.54525 38.7071 8.91855 43.0817C13.2929 47.4545 19.3263 50.1564 26 50.1567C32.674 50.1564 38.7072 47.4545 43.0817 43.0817C47.455 38.7071 50.1563 32.6741 50.1572 26.0001C50.1563 19.3263 47.455 13.2929 43.0817 8.91855C38.7072 4.54531 32.674 1.84335 26 1.84298C19.3263 1.84335 13.2929 4.54531 8.91855 8.91855Z"></path>
<path fill="#3C2200" d="M18.8876 44.4248C18.6442 44.411 18.4006 44.3888 18.1632 44.3592C16.2936 44.1239 14.4141 42.9949 12.8711 41.1789C10.5061 38.3955 9.34363 34.5184 9.682 30.5417L9.69217 30.4216L9.5814 30.3581C8.408 29.6424 5.82207 27.9554 5.20703 23.3984C5.29881 24.7644 7.66454 27.8165 9.67004 28.8191L9.95182 28.939C10.6292 26.7027 11.7065 25.4055 12.398 25.0065C12.2165 25.2626 11.5823 25.9581 11.125 29.2813L11.1046 29.4298L11.2528 29.4871C13.0172 30.17 15.1036 30.5845 17.4544 30.7191C24.426 31.1182 33.8715 29.0954 45.5291 24.7075C45.8204 24.6143 46.0659 24.571 46.2501 24.5816C46.4793 24.5946 46.5319 24.6881 46.5492 24.7189C46.6737 24.94 46.515 25.4226 46.2892 25.7616C44.3422 28.6942 40.1047 33.6263 34.5708 37.8762C30.4546 41.0367 24.3918 44.7389 18.8876 44.4248Z"></path>
<path fill="white" d="M10.9633 31.0387L10.9564 31.2897C10.8524 34.9376 11.8812 38.0812 13.8533 40.1411C15.2731 41.6246 17.1408 42.4727 19.2541 42.5935C27.0652 43.0404 35.2772 36.2541 45.7136 25.5543L45.6065 25.4453C37.6704 29.0569 25.7649 32.7924 16.9958 32.2905C14.7955 32.1646 12.8492 31.7763 11.2109 31.1353L10.9633 31.0387Z"></path>
<path fill="#F7A600" d="M14.204 26.9389C14.0921 26.9389 13.9961 26.8948 13.9404 26.8181C13.8877 26.7453 13.8764 26.6509 13.9087 26.5527L16.1678 19.6918C16.2246 19.52 16.4932 19.3139 16.6811 19.2978L19.7452 19.0398C19.8942 19.027 19.9926 19.0602 20.0486 19.1378C20.1001 19.2091 20.1052 19.3094 20.0633 19.436L19.9086 19.9059C19.8355 20.1285 19.658 20.2675 19.4218 20.2874L17.6133 20.4399C17.4395 20.4546 17.3054 20.5674 17.2453 20.7496L16.8122 22.0654C16.8034 22.092 16.792 22.1408 16.8138 22.171C16.8348 22.2001 16.8884 22.2147 16.9547 22.2089L18.4865 22.0799C18.6569 22.0653 18.7428 22.1308 18.7821 22.1851C18.8193 22.2365 18.8534 22.3289 18.8046 22.4763L18.6501 22.9462C18.5864 23.1393 18.3628 23.3108 18.1515 23.3287L16.608 23.4588C16.47 23.4704 16.32 23.5943 16.2737 23.7351L15.7165 25.4268C15.6968 25.4862 15.6949 25.5349 15.711 25.5573C15.7279 25.5807 15.7746 25.5843 15.801 25.5843C15.811 25.5843 15.8215 25.5837 15.8326 25.5828L17.6409 25.4304C17.7604 25.4207 17.8654 25.4666 17.9285 25.5538C17.986 25.6332 18.0001 25.7362 17.9671 25.836L17.8159 26.2956C17.7502 26.4954 17.5309 26.6603 17.3057 26.6792L14.2416 26.9373C14.2288 26.9384 14.2163 26.9389 14.204 26.9389Z"></path>
<path fill="#F7A600" d="M18.6123 26.5652C18.4735 26.5654 18.4115 26.4961 18.3868 26.4548C18.3385 26.3737 18.3463 26.2615 18.4082 26.1467L22.1334 19.1526C22.2438 18.9339 22.428 18.8114 22.6799 18.7902L23.7742 18.698C23.9295 18.6853 24.0377 18.717 24.1064 18.793C24.165 18.8577 24.1887 18.9501 24.177 19.0677L23.4418 25.7909C23.4087 26.0159 23.2193 26.1786 22.97 26.1995L22.3598 26.2512C22.2084 26.2632 22.1032 26.2291 22.0344 26.1505C21.9938 26.1039 21.9493 26.0187 21.9685 25.8771L22.0717 24.8863C22.0751 24.8466 22.0721 24.7893 22.038 24.7521C21.9951 24.7054 21.9279 24.704 21.8712 24.7085L20.7767 24.8007C20.6351 24.8127 20.4267 24.9765 20.3686 25.0948L19.8111 26.1394C19.6886 26.3519 19.4741 26.4943 19.2498 26.5132L18.6508 26.5636C18.6374 26.5646 18.6245 26.5652 18.6123 26.5652ZM22.6021 20.7835L21.2299 23.4299C21.1988 23.484 21.199 23.511 21.2032 23.5183C21.2075 23.5256 21.2339 23.5447 21.3041 23.5447C21.3154 23.5447 21.3271 23.5442 21.3391 23.5432L21.9954 23.4878C22.1673 23.4733 22.262 23.3953 22.2849 23.2494L22.6021 20.7835Z"></path>
<path fill="#F7A600" d="M25.8203 26.0598C25.1651 26.0598 24.6928 25.8661 24.4164 25.4842C24.0643 24.9979 24.1627 24.3807 24.2082 24.2421C24.263 24.076 24.4337 23.9351 24.6651 23.8651L25.2071 23.6893C25.295 23.6635 25.3708 23.6411 25.43 23.6361C25.5245 23.6283 25.5934 23.6504 25.6414 23.7019C25.6923 23.7566 25.7122 23.8366 25.7039 23.9532C25.6914 24.2554 25.7526 24.4805 25.8861 24.6197C26.0136 24.7524 26.2131 24.8085 26.4735 24.7868C26.987 24.7436 27.4523 24.3894 27.6052 23.9253C27.7362 23.5273 27.6536 23.2893 26.9055 22.6649L26.2724 22.1398C25.6396 21.6137 25.46 21.0189 25.7072 20.2679C26.0731 19.1578 27.239 18.3058 28.5429 18.1961C29.4301 18.1206 29.8698 18.4661 30.0768 18.7524C30.3602 19.1443 30.3766 19.6352 30.3225 19.7992C30.2714 19.9547 30.1251 20.0829 29.9214 20.1506L29.2935 20.3558C29.2503 20.3684 29.1755 20.3886 29.1275 20.3927C29.1144 20.3938 29.1019 20.3944 29.0901 20.3944C28.9754 20.3944 28.8367 20.3431 28.8263 20.0983C28.7955 19.5195 28.4979 19.4524 28.2768 19.4524C28.2497 19.4524 28.2218 19.4536 28.1928 19.456C27.7609 19.4925 27.3373 19.8183 27.2069 20.2138C27.0851 20.5844 27.203 20.8578 27.6422 21.2223L28.2061 21.6913C28.8618 22.2244 29.4812 22.7279 29.0944 23.9027C28.7109 25.0678 27.5214 25.9291 26.1347 26.046C26.0262 26.0552 25.9204 26.0598 25.8203 26.0598Z"></path>
<path fill="#F7A600" d="M29.8113 25.6215C29.7029 25.6215 29.609 25.5776 29.5535 25.5009C29.5016 25.4291 29.49 25.3382 29.5208 25.2448L31.7868 18.3631C31.8538 18.1602 32.0632 17.9993 32.2852 17.9807L32.9187 17.9272C33.0397 17.9167 33.1459 17.9632 33.2082 18.0493C33.2602 18.1211 33.2732 18.2136 33.2437 18.3027L30.9742 25.1947C30.9114 25.3861 30.6503 25.5524 30.4675 25.5678L29.8455 25.62C29.834 25.6211 29.8225 25.6215 29.8113 25.6215Z"></path>
<path fill="#F7A600" d="M33.996 25.3701C33.3408 25.3701 32.8685 25.1765 32.592 24.7946C32.2401 24.3083 32.3384 23.6912 32.3841 23.5525C32.4388 23.3862 32.6097 23.2454 32.841 23.1755L33.3871 22.9985C33.4733 22.9732 33.5477 22.9513 33.606 22.9464C33.7003 22.9379 33.769 22.9606 33.8171 23.0122C33.8682 23.0669 33.888 23.1468 33.8799 23.2635C33.8675 23.5658 33.9286 23.791 34.0622 23.9302C34.1895 24.0629 34.3892 24.1189 34.6494 24.0972C35.1629 24.054 35.6282 23.6997 35.781 23.2356C35.912 22.8377 35.8294 22.5997 35.0813 21.9753L34.4481 21.4501C33.8156 20.9236 33.636 20.329 33.8833 19.5783C34.2489 18.4682 35.4147 17.6162 36.7186 17.5064C37.6036 17.4318 38.0457 17.7767 38.2527 18.0628C38.536 18.4546 38.5526 18.9456 38.4984 19.1096C38.4473 19.265 38.3011 19.3931 38.0974 19.461L37.4692 19.6662C37.4262 19.6788 37.3517 19.6989 37.3033 19.7031C37.2901 19.7042 37.2777 19.7047 37.2658 19.7047C37.1514 19.7047 37.0126 19.6534 37.0023 19.4086C36.9713 18.8298 36.6738 18.7628 36.4528 18.7628C36.4256 18.7628 36.3977 18.764 36.3687 18.7664C35.9369 18.8028 35.5132 19.1286 35.3829 19.5242C35.261 19.8947 35.3789 20.1681 35.8179 20.5327L36.382 21.0017C37.0378 21.5347 37.6572 22.0383 37.2703 23.213C36.8867 24.3782 35.6973 25.2394 34.3107 25.3563C34.2021 25.3654 34.0961 25.3701 33.996 25.3701Z"></path>
<path fill="#3C2200" d="M23.0015 12.9593C23.0015 14.4299 22.0771 15.6228 20.9366 15.6228C19.796 15.6228 18.8711 14.4299 18.8711 12.9593C18.8711 11.4879 19.796 10.2949 20.9366 10.2949C22.0771 10.2949 23.0015 11.4879 23.0015 12.9593Z"></path>
<path fill="#3C2200" d="M34.5718 12.9593C34.5718 14.4299 33.6475 15.6228 32.5068 15.6228C31.3662 15.6228 30.4414 14.4299 30.4414 12.9593C30.4414 11.4879 31.3662 10.2949 32.5068 10.2949C33.6475 10.2949 34.5718 11.4879 34.5718 12.9593Z"></path>
<defs>
<radialGradient gradientTransform="translate(24.6583 16.0007) scale(34.4699 34.4699)" gradientUnits="userSpaceOnUse" r="1" cy="0" cx="0" id="paint0_radial_2604_2041">
<stop stop-color="white"></stop>
<stop stop-color="#FFF264" offset="1"></stop>
</radialGradient>
</defs>
</svg>
